<svg width="142" height="28" viewBox="0 0 142 28" fill="none" xmlns="http://www.w3.org/2000/svg">
<path d="M2.51562 18.8633V20.708H0V18.8633H2.51562ZM4.36523 7.29297C5.76368 7.29297 6.98654 7.67701 8.03223 8.21875C9.09035 8.74789 9.90285 9.51663 10.4697 10.5244C11.0492 11.5197 11.3389 12.6851 11.3389 14.0205C11.3388 15.3557 11.0491 16.5145 10.4697 17.4971C9.90281 18.4797 9.09045 19.2365 8.03223 19.7656C6.98654 20.2822 5.75782 20.708 4.35938 20.708H4.02441V18.8633H4.35938C5.89639 18.8633 7.08051 18.3666 7.89941 17.5352C8.71828 16.7037 9.12789 15.5322 9.12793 14.0205C9.12793 12.4961 8.71832 11.3049 7.89941 10.4482C7.08051 9.59171 5.90211 9.16309 4.36523 9.16309L2.17969 9.1377V14.8389H0V7.29297H4.36523Z" fill="#1D1D1D"/>
<path d="M14.6931 9.20771C14.3026 9.20771 13.975 9.07542 13.7104 8.81085C13.4458 8.54628 13.3136 8.21872 13.3136 7.82816C13.3136 7.4376 13.4458 7.11004 13.7104 6.84547C13.975 6.5809 14.3026 6.44861 14.6931 6.44861C15.0711 6.44861 15.3923 6.5809 15.6569 6.84547C15.9215 7.11004 16.0538 7.4376 16.0538 7.82816C16.0538 8.21872 15.9215 8.54628 15.6569 8.81085C15.3923 9.07542 15.0711 9.20771 14.6931 9.20771ZM15.7514 10.5873V21H13.597V10.5873H15.7514ZM22.6996 10.4172C23.5185 10.4172 24.2492 10.5873 24.8918 10.9274C25.5469 11.2676 26.0571 11.7715 26.4225 12.4392C26.7879 13.107 26.9705 13.9133 26.9705 14.8582V21H24.8351V15.1794C24.8351 14.2471 24.602 13.5353 24.1359 13.044C23.6697 12.54 23.0335 12.2881 22.2272 12.2881C21.4209 12.2881 20.7783 12.54 20.2996 13.044C19.8334 13.5353 19.6004 14.2471 19.6004 15.1794V21H17.446V10.5873H19.6004V11.7778C19.9531 11.3495 20.4004 11.0156 20.9421 10.7762C21.4965 10.5369 22.0823 10.4172 22.6996 10.4172ZM32.78 10.4172C33.5863 10.4172 34.2982 10.581 34.9155 10.9085C35.5454 11.2235 36.0368 11.6203 36.3895 12.0991V10.5873H38.5628V21.1701C38.5628 22.1276 38.3612 22.978 37.9581 23.7213C37.5549 24.4772 36.9691 25.0693 36.2005 25.4977C35.4446 25.9261 34.5375 26.1402 33.4792 26.1402C32.0682 26.1402 30.8965 25.8064 29.9642 25.1386C29.0319 24.4835 28.5028 23.589 28.3768 22.4551H30.5123C30.6761 22.9969 31.0225 23.4315 31.5517 23.7591C32.0934 24.0993 32.7359 24.2693 33.4792 24.2693C34.3486 24.2693 35.0478 24.0048 35.5769 23.4756C36.1187 22.9465 36.3895 22.178 36.3895 21.1701V19.4315C36.0242 19.9228 35.5265 20.3386 34.8966 20.6787C34.2793 21.0063 33.5737 21.1701 32.78 21.1701C31.8729 21.1701 31.0414 20.9433 30.2855 20.4898C29.5422 20.0236 28.9501 19.3811 28.5091 18.5622C28.0807 17.7307 27.8666 16.7921 27.8666 15.7464C27.8666 14.7007 28.0807 13.7747 28.5091 12.9684C28.9501 12.1621 29.5422 11.5384 30.2855 11.0975C31.0414 10.6439 31.8729 10.4172 32.78 10.4172ZM36.3895 15.7842C36.3895 15.0661 36.2383 14.4424 35.936 13.9133C35.6462 13.3841 35.262 12.981 34.7832 12.7038C34.3045 12.4267 33.7879 12.2881 33.2336 12.2881C32.6792 12.2881 32.1627 12.4267 31.6839 12.7038C31.2052 12.9684 30.8146 13.3652 30.5123 13.8944C30.2225 14.4109 30.0776 15.0283 30.0776 15.7464C30.0776 16.4645 30.2225 17.0944 30.5123 17.6362C30.8146 18.1779 31.2052 18.5937 31.6839 18.8834C32.1753 19.1606 32.6918 19.2992 33.2336 19.2992C33.7879 19.2992 34.3045 19.1606 34.7832 18.8834C35.262 18.6063 35.6462 18.2031 35.936 17.674C36.2383 17.1322 36.3895 16.5023 36.3895 15.7842ZM42.4129 12.118C42.7783 11.6392 43.2759 11.2361 43.9059 10.9085C44.5358 10.581 45.2476 10.4172 46.0413 10.4172C46.9484 10.4172 47.7736 10.6439 48.517 11.0975C49.2729 11.5384 49.865 12.1621 50.2934 12.9684C50.7217 13.7747 50.9359 14.7007 50.9359 15.7464C50.9359 16.7921 50.7217 17.7307 50.2934 18.5622C49.865 19.3811 49.2729 20.0236 48.517 20.4898C47.7736 20.9433 46.9484 21.1701 46.0413 21.1701C45.2476 21.1701 44.5421 21.0126 43.9248 20.6976C43.3074 20.3701 42.8035 19.9669 42.4129 19.4882V25.9513H40.2586V10.5873H42.4129V12.118ZM48.7437 15.7464C48.7437 15.0283 48.5926 14.4109 48.2902 13.8944C48.0004 13.3652 47.6099 12.9684 47.1185 12.7038C46.6398 12.4267 46.1232 12.2881 45.5689 12.2881C45.0271 12.2881 44.5106 12.4267 44.0193 12.7038C43.5405 12.981 43.15 13.3841 42.8476 13.9133C42.5578 14.4424 42.4129 15.0661 42.4129 15.7842C42.4129 16.5023 42.5578 17.1322 42.8476 17.674C43.15 18.2031 43.5405 18.6063 44.0193 18.8834C44.5106 19.1606 45.0271 19.2992 45.5689 19.2992C46.1232 19.2992 46.6398 19.1606 47.1185 18.8834C47.6099 18.5937 48.0004 18.1779 48.2902 17.6362C48.5926 17.0944 48.7437 16.4645 48.7437 15.7464ZM51.2143 15.7464C51.2143 14.7007 51.4285 13.7747 51.8569 12.9684C52.2978 12.1621 52.89 11.5384 53.6333 11.0975C54.3892 10.6439 55.2207 10.4172 56.1278 10.4172C56.9467 10.4172 57.6585 10.581 58.2633 10.9085C58.8806 11.2235 59.3719 11.6203 59.7373 12.0991V10.5873H61.9106V21H59.7373V19.4504C59.3719 19.9417 58.8743 20.3512 58.2444 20.6787C57.6144 21.0063 56.8963 21.1701 56.09 21.1701C55.1955 21.1701 54.3766 20.9433 53.6333 20.4898C52.89 20.0236 52.2978 19.3811 51.8569 18.5622C51.4285 17.7307 51.2143 16.7921 51.2143 15.7464ZM59.7373 15.7842C59.7373 15.0661 59.5861 14.4424 59.2837 13.9133C58.994 13.3841 58.6097 12.981 58.131 12.7038C57.6522 12.4267 57.1357 12.2881 56.5813 12.2881C56.027 12.2881 55.5105 12.4267 55.0317 12.7038C54.553 12.9684 54.1624 13.3652 53.86 13.8944C53.5703 14.4109 53.4254 15.0283 53.4254 15.7464C53.4254 16.4645 53.5703 17.0944 53.86 17.6362C54.1624 18.1779 54.553 18.5937 55.0317 18.8834C55.5231 19.1606 56.0396 19.2992 56.5813 19.2992C57.1357 19.2992 57.6522 19.1606 58.131 18.8834C58.6097 18.6063 58.994 18.2031 59.2837 17.674C59.5861 17.1322 59.7373 16.5023 59.7373 15.7842ZM72.9797 10.5873L66.5922 25.8946H64.3623L66.4788 20.8299L62.378 10.5873H64.778L67.7072 18.5244L70.7498 10.5873H72.9797Z" fill="#1D1D1D"/>
<circle cx="78.5205" cy="14" r="1.3623" fill="#1D1D1D"/>
<path d="M92.2184 18.3165H86.7191L85.7742 21H83.5253L88.2309 7.84706H90.7254L95.431 21H93.1633L92.2184 18.3165ZM91.6136 16.559L89.4782 10.455L87.3238 16.559H91.6136ZM95.625 15.7464C95.625 14.7007 95.8392 13.7747 96.2675 12.9684C96.7085 12.1621 97.3006 11.5384 98.044 11.0975C98.7999 10.6439 99.6377 10.4172 100.557 10.4172C101.238 10.4172 101.905 10.5684 102.561 10.8707C103.228 11.1605 103.757 11.551 104.148 12.0424V7.01555H106.321V21H104.148V19.4315C103.795 19.9354 103.304 20.3512 102.674 20.6787C102.057 21.0063 101.345 21.1701 100.538 21.1701C99.6314 21.1701 98.7999 20.9433 98.044 20.4898C97.3006 20.0236 96.7085 19.3811 96.2675 18.5622C95.8392 17.7307 95.625 16.7921 95.625 15.7464ZM104.148 15.7842C104.148 15.0661 103.997 14.4424 103.694 13.9133C103.405 13.3841 103.02 12.981 102.542 12.7038C102.063 12.4267 101.546 12.2881 100.992 12.2881C100.438 12.2881 99.9211 12.4267 99.4424 12.7038C98.9636 12.9684 98.5731 13.3652 98.2707 13.8944C97.981 14.4109 97.8361 15.0283 97.8361 15.7464C97.8361 16.4645 97.981 17.0944 98.2707 17.6362C98.5731 18.1779 98.9636 18.5937 99.4424 18.8834C99.9337 19.1606 100.45 19.2992 100.992 19.2992C101.546 19.2992 102.063 19.1606 102.542 18.8834C103.02 18.6063 103.405 18.2031 103.694 17.674C103.997 17.1322 104.148 16.5023 104.148 15.7842ZM120.622 10.4172C121.441 10.4172 122.172 10.5873 122.814 10.9274C123.469 11.2676 123.979 11.7715 124.345 12.4392C124.723 13.107 124.912 13.9133 124.912 14.8582V21H122.776V15.1794C122.776 14.2471 122.543 13.5353 122.077 13.044C121.611 12.54 120.975 12.2881 120.168 12.2881C119.362 12.2881 118.72 12.54 118.241 13.044C117.775 13.5353 117.542 14.2471 117.542 15.1794V21H115.406V15.1794C115.406 14.2471 115.173 13.5353 114.707 13.044C114.241 12.54 113.605 12.2881 112.798 12.2881C111.992 12.2881 111.349 12.54 110.871 13.044C110.404 13.5353 110.171 14.2471 110.171 15.1794V21H108.017V10.5873H110.171V11.7778C110.524 11.3495 110.971 11.0156 111.513 10.7762C112.055 10.5369 112.634 10.4172 113.252 10.4172C114.083 10.4172 114.827 10.5936 115.482 10.9463C116.137 11.2991 116.641 11.8093 116.994 12.477C117.308 11.8471 117.8 11.3495 118.468 10.9841C119.135 10.6062 119.853 10.4172 120.622 10.4172ZM127.615 9.20771C127.225 9.20771 126.897 9.07542 126.633 8.81085C126.368 8.54628 126.236 8.21872 126.236 7.82816C126.236 7.4376 126.368 7.11004 126.633 6.84547C126.897 6.5809 127.225 6.44861 127.615 6.44861C127.993 6.44861 128.315 6.5809 128.579 6.84547C128.844 7.11004 128.976 7.4376 128.976 7.82816C128.976 8.21872 128.844 8.54628 128.579 8.81085C128.315 9.07542 127.993 9.20771 127.615 9.20771ZM128.674 10.5873V21H126.519V10.5873H128.674ZM135.622 10.4172C136.441 10.4172 137.171 10.5873 137.814 10.9274C138.469 11.2676 138.979 11.7715 139.345 12.4392C139.71 13.107 139.893 13.9133 139.893 14.8582V21H137.757V15.1794C137.757 14.2471 137.524 13.5353 137.058 13.044C136.592 12.54 135.956 12.2881 135.149 12.2881C134.343 12.2881 133.701 12.54 133.222 13.044C132.756 13.5353 132.523 14.2471 132.523 15.1794V21H130.368V10.5873H132.523V11.7778C132.875 11.3495 133.323 11.0156 133.864 10.7762C134.419 10.5369 135.005 10.4172 135.622 10.4172Z" fill="#1884F6"/>
</svg>
