<svg width="133" height="28" viewBox="0 0 133 28" fill="none" xmlns="http://www.w3.org/2000/svg">
<path d="M2.51562 18.8633V20.708H0V18.8633H2.51562ZM4.36523 7.29297C5.76368 7.29297 6.98654 7.67701 8.03223 8.21875C9.09035 8.74789 9.90285 9.51663 10.4697 10.5244C11.0492 11.5197 11.3389 12.6851 11.3389 14.0205C11.3388 15.3557 11.0491 16.5145 10.4697 17.4971C9.90281 18.4797 9.09045 19.2365 8.03223 19.7656C6.98654 20.2822 5.75782 20.708 4.35938 20.708H4.02441V18.8633H4.35938C5.89639 18.8633 7.08051 18.3666 7.89941 17.5352C8.71828 16.7037 9.12789 15.5322 9.12793 14.0205C9.12793 12.4961 8.71832 11.3049 7.89941 10.4482C7.08051 9.59171 5.90211 9.16309 4.36523 9.16309L2.17969 9.1377V14.8389H0V7.29297H4.36523Z" fill="#1D1D1D"/>
<path d="M14.6951 9.20771C14.3045 9.20771 13.9769 9.07542 13.7124 8.81085C13.4478 8.54628 13.3155 8.21872 13.3155 7.82816C13.3155 7.4376 13.4478 7.11004 13.7124 6.84547C13.9769 6.5809 14.3045 6.44861 14.6951 6.44861C15.073 6.44861 15.3943 6.5809 15.6589 6.84547C15.9234 7.11004 16.0557 7.4376 16.0557 7.82816C16.0557 8.21872 15.9234 8.54628 15.6589 8.81085C15.3943 9.07542 15.073 9.20771 14.6951 9.20771ZM15.7533 10.5873V21H13.599V10.5873H15.7533ZM22.7016 10.4172C23.5205 10.4172 24.2512 10.5873 24.8937 10.9274C25.5489 11.2676 26.0591 11.7715 26.4245 12.4392C26.7898 13.107 26.9725 13.9133 26.9725 14.8582V21H24.837V15.1794C24.837 14.2471 24.604 13.5353 24.1378 13.044C23.6717 12.54 23.0354 12.2881 22.2291 12.2881C21.4228 12.2881 20.7803 12.54 20.3015 13.044C19.8354 13.5353 19.6023 14.2471 19.6023 15.1794V21H17.448V10.5873H19.6023V11.7778C19.9551 11.3495 20.4023 11.0156 20.9441 10.7762C21.4984 10.5369 22.0842 10.4172 22.7016 10.4172ZM32.782 10.4172C33.5883 10.4172 34.3001 10.581 34.9174 10.9085C35.5474 11.2235 36.0387 11.6203 36.3915 12.0991V10.5873H38.5647V21.1701C38.5647 22.1276 38.3632 22.978 37.96 23.7213C37.5569 24.4772 36.971 25.0693 36.2025 25.4977C35.4466 25.9261 34.5395 26.1402 33.4812 26.1402C32.0702 26.1402 30.8985 25.8064 29.9662 25.1386C29.0339 24.4835 28.5048 23.589 28.3788 22.4551H30.5142C30.678 22.9969 31.0245 23.4315 31.5536 23.7591C32.0954 24.0993 32.7379 24.2693 33.4812 24.2693C34.3505 24.2693 35.0497 24.0048 35.5789 23.4756C36.1206 22.9465 36.3915 22.178 36.3915 21.1701V19.4315C36.0261 19.9228 35.5285 20.3386 34.8985 20.6787C34.2812 21.0063 33.5757 21.1701 32.782 21.1701C31.8749 21.1701 31.0434 20.9433 30.2875 20.4898C29.5441 20.0236 28.952 19.3811 28.5111 18.5622C28.0827 17.7307 27.8685 16.7921 27.8685 15.7464C27.8685 14.7007 28.0827 13.7747 28.5111 12.9684C28.952 12.1621 29.5441 11.5384 30.2875 11.0975C31.0434 10.6439 31.8749 10.4172 32.782 10.4172ZM36.3915 15.7842C36.3915 15.0661 36.2403 14.4424 35.9379 13.9133C35.6482 13.3841 35.2639 12.981 34.7852 12.7038C34.3064 12.4267 33.7899 12.2881 33.2355 12.2881C32.6812 12.2881 32.1646 12.4267 31.6859 12.7038C31.2072 12.9684 30.8166 13.3652 30.5142 13.8944C30.2245 14.4109 30.0796 15.0283 30.0796 15.7464C30.0796 16.4645 30.2245 17.0944 30.5142 17.6362C30.8166 18.1779 31.2072 18.5937 31.6859 18.8834C32.1772 19.1606 32.6938 19.2992 33.2355 19.2992C33.7899 19.2992 34.3064 19.1606 34.7852 18.8834C35.2639 18.6063 35.6482 18.2031 35.9379 17.674C36.2403 17.1322 36.3915 16.5023 36.3915 15.7842Z" fill="#1D1D1D"/>
<circle cx="43.8838" cy="14" r="1.3623" fill="#1D1D1D"/>
<path d="M63.4967 7.86596V21H61.3423V12.0046L57.336 21H55.8431L51.8178 12.0046V21H49.6634V7.86596H51.9879L56.599 18.1653L61.1912 7.86596H63.4967ZM74.7379 15.5385C74.7379 15.9291 74.7127 16.2818 74.6623 16.5968H66.7062C66.7692 17.4283 67.0779 18.096 67.6322 18.6C68.1866 19.1039 68.8669 19.3559 69.6732 19.3559C70.8323 19.3559 71.6512 18.8708 72.1299 17.9007H74.4544C74.1394 18.8582 73.5662 19.6457 72.7347 20.263C71.9158 20.8677 70.8953 21.1701 69.6732 21.1701C68.6779 21.1701 67.7834 20.9496 66.9897 20.5087C66.2086 20.0551 65.5913 19.4252 65.1377 18.6189C64.6968 17.8 64.4763 16.8551 64.4763 15.7842C64.4763 14.7133 64.6905 13.7747 65.1188 12.9684C65.5598 12.1495 66.1708 11.5196 66.9519 11.0786C67.7456 10.6376 68.6527 10.4172 69.6732 10.4172C70.6559 10.4172 71.5315 10.6314 72.3 11.0597C73.0685 11.4881 73.667 12.0928 74.0953 12.8739C74.5237 13.6424 74.7379 14.5306 74.7379 15.5385ZM72.489 14.8582C72.4764 14.0645 72.1929 13.4282 71.6386 12.9495C71.0843 12.4707 70.3976 12.2314 69.5787 12.2314C68.8354 12.2314 68.1992 12.4707 67.67 12.9495C67.1409 13.4156 66.8259 14.0519 66.7251 14.8582H72.489ZM77.8784 12.0991C78.1934 11.5699 78.6092 11.1605 79.1257 10.8707C79.6549 10.5684 80.2785 10.4172 80.9966 10.4172V12.6471H80.4486C79.6045 12.6471 78.9619 12.8613 78.521 13.2897C78.0926 13.718 77.8784 14.4613 77.8784 15.5196V21H75.7241V10.5873H77.8784V12.0991ZM81.1249 15.7842C81.1249 14.7133 81.3391 13.7747 81.7674 12.9684C82.2084 12.1495 82.8131 11.5196 83.5816 11.0786C84.3501 10.6376 85.232 10.4172 86.2273 10.4172C87.4872 10.4172 88.5266 10.7195 89.3455 11.3243C90.177 11.9164 90.7376 12.7668 91.0274 13.8755H88.703C88.514 13.3589 88.2116 12.9558 87.7959 12.666C87.3801 12.3763 86.8573 12.2314 86.2273 12.2314C85.3454 12.2314 84.6399 12.5463 84.1108 13.1763C83.5942 13.7936 83.336 14.6629 83.336 15.7842C83.336 16.9055 83.5942 17.7811 84.1108 18.411C84.6399 19.0409 85.3454 19.3559 86.2273 19.3559C87.4746 19.3559 88.2998 18.8078 88.703 17.7118H91.0274C90.725 18.77 90.1581 19.6142 89.3266 20.2441C88.4951 20.8614 87.462 21.1701 86.2273 21.1701C85.232 21.1701 84.3501 20.9496 83.5816 20.5087C82.8131 20.0551 82.2084 19.4252 81.7674 18.6189C81.3391 17.8 81.1249 16.8551 81.1249 15.7842ZM97.4264 10.4172C98.2201 10.4172 98.9256 10.5873 99.543 10.9274C100.173 11.2676 100.664 11.7715 101.017 12.4392C101.382 13.107 101.565 13.9133 101.565 14.8582V21H99.4296V15.1794C99.4296 14.2471 99.1965 13.5353 98.7304 13.044C98.2642 12.54 97.628 12.2881 96.8217 12.2881C96.0154 12.2881 95.3728 12.54 94.8941 13.044C94.4279 13.5353 94.1949 14.2471 94.1949 15.1794V21H92.0405V7.01555H94.1949V11.7967C94.5602 11.3558 95.0201 11.0156 95.5744 10.7762C96.1414 10.5369 96.7587 10.4172 97.4264 10.4172ZM102.461 15.7464C102.461 14.7007 102.675 13.7747 103.104 12.9684C103.545 12.1621 104.137 11.5384 104.88 11.0975C105.636 10.6439 106.467 10.4172 107.375 10.4172C108.193 10.4172 108.905 10.581 109.51 10.9085C110.127 11.2235 110.619 11.6203 110.984 12.0991V10.5873H113.157V21H110.984V19.4504C110.619 19.9417 110.121 20.3512 109.491 20.6787C108.861 21.0063 108.143 21.1701 107.337 21.1701C106.442 21.1701 105.623 20.9433 104.88 20.4898C104.137 20.0236 103.545 19.3811 103.104 18.5622C102.675 17.7307 102.461 16.7921 102.461 15.7464ZM110.984 15.7842C110.984 15.0661 110.833 14.4424 110.53 13.9133C110.241 13.3841 109.856 12.981 109.378 12.7038C108.899 12.4267 108.382 12.2881 107.828 12.2881C107.274 12.2881 106.757 12.4267 106.278 12.7038C105.8 12.9684 105.409 13.3652 105.107 13.8944C104.817 14.4109 104.672 15.0283 104.672 15.7464C104.672 16.4645 104.817 17.0944 105.107 17.6362C105.409 18.1779 105.8 18.5937 106.278 18.8834C106.77 19.1606 107.286 19.2992 107.828 19.2992C108.382 19.2992 108.899 19.1606 109.378 18.8834C109.856 18.6063 110.241 18.2031 110.53 17.674C110.833 17.1322 110.984 16.5023 110.984 15.7842ZM120.107 10.4172C120.926 10.4172 121.656 10.5873 122.299 10.9274C122.954 11.2676 123.464 11.7715 123.83 12.4392C124.195 13.107 124.378 13.9133 124.378 14.8582V21H122.242V15.1794C122.242 14.2471 122.009 13.5353 121.543 13.044C121.077 12.54 120.441 12.2881 119.634 12.2881C118.828 12.2881 118.185 12.54 117.707 13.044C117.241 13.5353 117.007 14.2471 117.007 15.1794V21H114.853V10.5873H117.007V11.7778C117.36 11.3495 117.807 11.0156 118.349 10.7762C118.904 10.5369 119.489 10.4172 120.107 10.4172ZM128.505 12.3448V18.1086C128.505 18.4992 128.593 18.7826 128.77 18.959C128.959 19.1228 129.274 19.2047 129.715 19.2047H131.038V21H129.337C128.367 21 127.623 20.7732 127.107 20.3197C126.59 19.8661 126.332 19.1291 126.332 18.1086V12.3448H125.104V10.5873H126.332V7.99824H128.505V10.5873H131.038V12.3448H128.505Z" fill="#1884F6"/>
</svg>
